{"title":"the taking of pelham 123-cam.3gp","uid":5121616,"size":52930325,"categoryP":"video","categoryS":"handheld","magnet":"?xt=urn:btih:bbcad7d032c569d8f5cee937bae5d0e6864b0c10&amp;dn=the+taking+of+pelham+123-cam.3gp&amp;tr=udp%3A%2F%2Ftracker.openbittorrent.com%3A80&amp;tr=udp%3A%2F%2Fopen.demonii.com%3A1337&amp;tr=udp%3A%2F%2Ftracker.coppersurfer.tk%3A6969&amp;tr=udp%3A%2F%2Fexodus.desync.com%3A6969","seeders":0,"leechers":0,"uploader":"chitchatid","files":1,"time":1255378192,"description":"General\nComplete name                    : the taking of pelham 123-cam.3gp\nFormat                           : MPEG-4\nFormat profile                   : 3GPP Media Release 4\nCodec ID                         : 3gp4\nFile size                        : 50.5 MiB\nDuration                         : 1h 40mn\nOverall bit rate                 : 70.2 Kbps\nEncoded date                     : UTC 1970-01-01 00:00:00\nTagged date                      : UTC 1970-01-01 00:00:00\n\nVideo\nID                               : 1\nFormat                           : H.263\nCodec ID                         : s263\nDuration                         : 1h 40mn\nBit rate mode                    : Variable\nBit rate                         : 55.2 Kbps\nWidth                            : 128 pixels\nHeight                           : 96 pixels\nDisplay aspect ratio             : 4/3\nFrame rate mode                  : Constant\nFrame rate                       : 10.000 fps\nBits/(Pixel*Frame)               : 0.449\nStream size                      : 39.6 MiB (79%)\nEncoded date                     : UTC 1970-01-01 00:00:00\nTagged date                      : UTC 1970-01-01 00:00:00\n\nAudio\nID                               : 2\nFormat                           : AMR\nFormat/Info                      : Adaptive Multi-Rate\nFormat profile                   : Narrow band\nCodec ID                         : samr\nDuration                         : 1h 40mn\nBit rate mode                    : Constant\nBit rate                         : 12.8 Kbps\nChannel(s)                       : 2 channels\nSampling rate                    : 8 000 Hz\nResolution                       : 16 bits\nStream size                      : 9.20 MiB (18%)\nEncoded date                     : UTC 1970-01-01 00:00:00\nTagged date                      : UTC 1970-01-01 00:00:00\n\n","torrent":{"xt":"urn:btih:bbcad7d032c569d8f5cee937bae5d0e6864b0c10","amp;dn":"the+taking+of+pelham+123-cam.3gp","amp;tr":["udp%3A%2F%2Ftracker.openbittorrent.com%3A80","udp%3A%2F%2Fopen.demonii.com%3A1337","udp%3A%2F%2Ftracker.coppersurfer.tk%3A6969","udp%3A%2F%2Fexodus.desync.com%3A6969"],"infoHash":"bbcad7d032c569d8f5cee937bae5d0e6864b0c10","infoHashBuffer":{"type":"Buffer","data":[187,202,215,208,50,197,105,216,245,206,233,55,186,229,208,230,134,75,12,16]},"announce":[],"urlList":[]}}